#!OML:ASF F:\VICON\USERDATA\INSTALL\rory3\rory3.ASF
:FULLY-SPECIFIED
:DEGREES
580
root -2.48034 17.8571 11.1849 -162.394 74.9991 -160.044
lowerback 15.2859 1.432 5.12095
upperback 0.849892 3.21701 3.4568
thorax -7.60655 1.51035 0.100457
lowerneck -20.571 -1.6609 -7.57358
upperneck 35.1272 1.58634 0.517288
head 15.9343 0.122545 1.97056
rclavicle 2.19657e-014 3.65764e-014
rhumerus -44.2586 30.0553 -98.0162
rradius 94.4091
rwrist -15.7402
rhand -14.2568 4.13552
rfingers 7.12502
rthumb 11.8815 -25.5074
lclavicle 2.19657e-014 3.65764e-014
lhumerus -42.6877 -36.8143 105.484
lradius 87.0187
lwrist 9.30659
lhand -14.1083 35.2741
lfingers 7.12502
lthumb 12.0247 64.9086
rfemur -11.2899 -0.133288 21.7631
rtibia 25.1306
rfoot -10.6261 0.226684
rtoes -7.38252
lfemur -10.0651 -5.39674 -13.7612
ltibia 58.5053
lfoot 1.72413 -16.084
ltoes 13.8892
581
root -2.39614 17.8643 11.1812 -163.765 74.2897 -161.68
lowerback 15.2476 1.45272 5.01626
upperback 0.687647 3.21667 3.35497
thorax -7.75958 1.503 0.0502612
lowerneck -20.4555 -1.70883 -7.39309
upperneck 35.0377 1.52462 0.288994
head 15.871 0.094794 1.82717
rclavicle 4.9398e-014 -1.90833e-014
rhumerus -44.1062 30.2599 -97.7947
rradius 94.3375
rwrist -16.1303
rhand -14.1526 4.09647
rfingers 7.12502
rthumb 11.982 -25.5406
lclavicle 4.9398e-014 -1.90833e-014
lhumerus -42.5783 -36.939 105.471
lradius 86.9543
lwrist 9.36417
lhand -13.9709 35.3781
lfingers 7.12502
lthumb 12.1572 65.0048
rfemur -11.2659 -0.0268527 21.6358
rtibia 25.3584
rfoot -10.8505 -0.724897
rtoes -6.71394
lfemur -11.5201 -4.98852 -13.8135
ltibia 59.1325
lfoot 0.858545 -15.5186
ltoes 14.0518
582
root -2.31041 17.8678 11.1794 -164.846 73.5081 -162.85
lowerback 15.2513 1.39653 4.927
upperback 0.639545 3.1292 3.35172
thorax -7.82078 1.46168 0.11478
lowerneck -20.4417 -1.8048 -7.58793
upperneck 35.0905 1.41607 0.432011
head 15.898 0.0467959 1.90388
rclavicle 4.92986e-014 1.11319e-014
rhumerus -43.9068 30.623 -97.5115
rradius 94.2897
rwrist -16.4888
rhand -14.1447 4.01747
rfingers 7.12502
rthumb 11.9896 -25.6191
lclavicle 4.92986e-014 1.11319e-014
lhumerus -42.5221 -36.7113 105.515
lradius 86.9433
lwrist 9.12368
lhand -13.5858 35.0594
lfingers 7.12502
lthumb 12.5284 64.6638
rfemur -11.1046 0.0595668 21.6527
rtibia 25.626
rfoot -11.0566 -1.81853
rtoes -5.96231
lfemur -12.7389 -4.62781 -13.7822
ltibia 59.5824
lfoot 0.13953 -15.0822
ltoes 13.3725
583
root -2.20957 17.8627 11.172 -166.947 72.8822 -164.736
lowerback 15.2505 1.42345 4.53871
upperback 0.820001 3.08579 3.30959
thorax -7.64306 1.46059 0.298265
lowerneck -20.516 -1.9609 -7.87877
upperneck 35.1154 1.2432 0.607986
head 15.9366 -0.0385423 1.9986
rclavicle 1.89839e-014 3.18055e-015
rhumerus -43.5998 30.9088 -97.0915
rradius 94.2405
rwrist -16.7077
rhand -14.3679 3.83732
rfingers 7.12502
rthumb 11.7744 -25.8117
lclavicle 1.89839e-014 3.18055e-015
lhumerus -42.3737 -36.4899 105.636
lradius 86.9325
lwrist 8.78465
lhand -13.4531 34.9937
lfingers 7.12502
lthumb 12.6564 64.5902
rfemur -10.4933 -0.100549 21.3616
rtibia 25.9148
rfoot -11.3623 -2.77438
rtoes -6.7579
lfemur -13.4141 -4.40895 -14.1645
ltibia 59.8642
lfoot -0.410485 -14.4598
ltoes 13.2433
584
root -2.10462 17.8663 11.1623 -168.378 72.3344 -166.089
lowerback 15.128 1.53419 4.27418
upperback 0.94982 3.16671 3.25166
thorax -7.44247 1.51342 0.372905
lowerneck -20.5897 -2.13096 -8.0235
upperneck 35.0882 1.03321 0.661023
head 15.9536 -0.136962 2.00628
rclavicle -1.36167e-014 -8.74653e-015
rhumerus -43.25 31.1696 -96.6712
rradius 94.1563
rwrist -16.9816
rhand -14.6027 3.6428
rfingers 7.12502
rthumb 11.5479 -26.0191
lclavicle -1.36167e-014 -8.74653e-015
lhumerus -42.2659 -36.3941 105.807
lradius 86.9553
lwrist 8.41652
lhand -13.4635 35.1515
lfingers 7.12502
lthumb 12.6464 64.7487
rfemur -10.0376 -0.0401263 21.1409
rtibia 26.2335
rfoot -11.8224 -3.46498
rtoes -5.34507
lfemur -14.2221 -3.98247 -14.3987
ltibia 59.9845
lfoot -0.933137 -13.9352
ltoes 13.0573
585
root -2.01325 17.8617 11.1576 -168.938 71.7049 -166.689
lowerback 15.124 1.59031 4.1982
upperback 0.940875 3.22726 3.24055
thorax -7.45199 1.54479 0.391013
lowerneck -20.517 -2.21131 -8.125
upperneck 34.9432 0.916255 0.711865
head 15.8718 -0.187414 2.01978
rclavicle -7.76254e-014 -3.4191e-014
rhumerus -43.0478 31.4666 -96.3761
rradius 94.1331
rwrist -17.3087
rhand -14.5459 3.67461
rfingers 7.12502
rthumb 11.6027 -25.9842
lclavicle -7.76254e-014 -3.4191e-014
lhumerus -42.2806 -36.1803 105.97
lradius 87.0075
lwrist 8.09952
lhand -13.2154 35.0674
lfingers 7.12502
lthumb 12.8856 64.6496
rfemur -9.80046 0.10847 21.1785
rtibia 26.5413
rfoot -12.2249 -4.13269
rtoes -3.45403
lfemur -15.3002 -3.36284 -14.3246
ltibia 60.0318
lfoot -1.57567 -13.8573
ltoes 11.5093
